<svg width="1747" height="386" viewBox="0 0 1747 386" fill="none" xmlns="http://www.w3.org/2000/svg">
<path d="M339.7 101H296C291.5 101 287.8 102.3 285.1 104.8C282.5 107.2 280.7 109.9 280 112.6L212.8 290.2L145.6 112.6C142.8 105 137.1 101 129 101H85.3C81.8 101 78.7 102.4 75.9 105.2C73.1 108 71.7 111.3 71.7 115.1C71.7 117.5 71.9 119.3 72.4 120.8L171.4 365.2C173.3 369.8 175.9 373.4 179 375.9C182.2 378.5 186.9 379.9 192.7 379.9H232.7C242.5 379.9 249.7 375 254 365.2L352.5 120.7C352.9 119.4 353.2 117.6 353.2 115.2C353.2 111.4 351.9 108.1 349.4 105.3C346.9 102.4 343.6 101 339.7 101Z" fill="white"/>
<path d="M606.9 128.3C583.7 106.7 551.2 95.8 510.4 95.8C469.2 95.8 436.6 106.7 413.4 128.3C390.2 149.9 377.5 179.8 375.7 217.2L375.2 240.5L375.7 263.7C377.5 301.4 390 331.4 412.8 352.8C435.6 374.2 468.5 385.1 510.4 385.1C551.9 385.1 584.6 374.2 607.4 352.8C630.3 331.4 642.7 301.4 644.5 263.7C644.9 259.4 645 251.5 645 240.3C645 229.1 644.8 221.2 644.5 217C642.7 179.8 630.1 149.9 606.9 128.3ZM453.3 220C454 198.2 459.3 181.5 469 170.2C478.6 159.1 492.5 153.4 510.3 153.4C527.7 153.4 541.4 159 551.1 170.2C560.8 181.5 566.1 198.2 566.8 220.2C567.1 223.7 567.3 230.5 567.3 240.5C567.3 250.5 567.1 257.3 566.8 261C566.1 282.8 560.9 299.4 551.3 310.5C541.8 321.5 528 327 510.3 327C492.5 327 478.6 321.4 469 310.5C459.3 299.4 454 282.8 453.3 261L452.8 240.6L453.3 220Z" fill="white"/>
<path d="M867.9 101H845.8C814.8 101 790.2 111.2 772.5 131.2V116.6C772.5 112.1 771 108.3 768.1 105.3C765.2 102.4 761.4 100.9 756.9 100.9H713.7C709.5 100.9 705.9 102.4 703 105.3C700.1 108.2 698.6 112 698.6 116.6V364.7C698.6 368.9 700.1 372.5 703 375.4C705.9 378.3 709.5 379.8 713.7 379.8H760.6C764.8 379.8 768.4 378.3 771.3 375.4C774.2 372.5 775.7 368.9 775.7 364.7V220.4C775.7 204.7 780.2 192.1 789.2 183.2C798.2 174.3 810.7 162.4 826.4 162.4H868C872.6 162.4 876.3 160.9 879.1 157.9C881.8 155 883.2 151.4 883.2 147.2V116.1C883.2 111.6 881.8 107.9 879 105.1C876.2 102.4 872.5 101 867.9 101Z" fill="white"/>
<path d="M1089.1 316.4H1052.2C1041 316.4 1033.3 313 1028.5 305.9C1023.5 298.6 1021 287.6 1021 273.1V162.4H1084.3C1088.5 162.4 1092.1 160.9 1095 158C1097.9 155.1 1099.4 151.5 1099.4 147.3V116.2C1099.4 112 1097.9 108.4 1095 105.5C1092.1 102.6 1088.5 101.1 1084.3 101.1H1021V16.1C1021 11.6 1019.6 7.89999 1016.8 5.09999C1014 2.29999 1010.3 0.899994 1005.8 0.899994H962.1C957.9 0.899994 954.4 2.29999 951.4 4.99999C948.4 7.79999 946.9 11.5 946.9 16.1V101H908C903.8 101 900.2 102.5 897.3 105.4C894.4 108.3 892.9 111.9 892.9 116.1V147.2C892.9 151.4 894.4 155 897.3 157.9C900.2 160.8 903.8 162.3 908 162.3H947.1V278.8C947.1 311.6 955.5 336.9 972 354C988.6 371.1 1013.4 379.8 1046 379.8H1089.2C1093.8 379.8 1097.5 378.3 1100.2 375.3C1102.9 372.4 1104.3 368.8 1104.3 364.6V331.4C1104.3 326.9 1102.9 323.2 1100.1 320.4C1097.4 317.8 1093.7 316.4 1089.1 316.4Z" fill="white"/>
<path d="M1365.1 134.5C1342.1 108.8 1308.9 95.7 1266.6 95.7C1225.3 95.7 1192.5 108.7 1169.2 134.4C1145.9 160 1134.1 195.5 1134.1 239.9L1134.6 253.1C1136 295 1148.6 327.8 1172 350.7C1195.4 373.5 1227.4 385.1 1267.2 385.1C1292 385.1 1314.2 380.8 1333 372.2C1351.9 363.7 1366.6 353.4 1376.8 341.8C1387.3 329.8 1392.4 319.5 1392.4 310.4C1392.4 306.4 1390.9 303.3 1388 301C1385.3 298.9 1382 297.8 1378.3 297.8H1332C1327.4 297.8 1324.1 298.3 1321.9 299.4C1319.8 300.5 1317.2 302.9 1313.7 307.2C1301.6 322.6 1285.8 330.5 1266.7 330.5C1249.8 330.5 1236.9 324.5 1227.3 312.2C1217.7 299.9 1212.4 284 1211.8 265V263.3H1384.1C1388.6 263.3 1392.4 261.8 1395.4 258.9C1398.3 256 1399.8 252.4 1399.8 248.2V237.1C1399.7 194.7 1388.1 160.1 1365.1 134.5ZM1226.4 167C1236 155.2 1249.6 149.2 1266.6 149.2C1283.6 149.2 1297.3 155.2 1307.1 167C1316.8 178.7 1321.8 194.4 1322.1 213.7H1211.8C1212 194.4 1216.9 178.6 1226.4 167Z" fill="white"/>
<path d="M1546.8 230.6C1522.5 230.4 1499.6 218.9 1485.1 199.4L1426.9 121.3C1424.9 118.6 1423.9 115.5 1423.9 112.2C1423.9 109.5 1424.9 107 1426.9 104.8C1428.9 102.6 1431.5 101.5 1434.5 101.5H1477.7C1482.4 101.5 1485.9 102.9 1488.1 105.6C1490.3 108.3 1491.6 109.8 1491.9 110.2L1548.3 185.9L1605.2 110.2C1607.2 107.5 1609.2 105.4 1611 103.8C1612.9 102.3 1615.7 101.5 1619.4 101.5H1664.1C1667.1 101.5 1669.8 102.6 1672 104.8C1674.2 107 1675.3 109.6 1675.3 112.7C1675.3 115.7 1674.3 118.6 1672.3 121.3L1617.6 195.2C1601 217.6 1574.7 230.8 1546.8 230.6Z" fill="white"/>
<path d="M1546.9 250.7C1522.6 250.9 1499.7 262.4 1485.2 281.9L1427 360C1425 362.7 1424 365.8 1424 369.1C1424 371.8 1425 374.3 1427 376.5C1429 378.7 1431.6 379.8 1434.6 379.8H1477.8C1482.5 379.8 1486 378.4 1488.2 375.7C1490.4 373 1491.7 371.5 1492 371.1L1548.4 295.4L1605.3 371.1C1607.3 373.8 1609.3 375.9 1611.1 377.5C1613 379 1615.8 379.8 1619.5 379.8H1664.2C1667.2 379.8 1669.9 378.7 1672.1 376.5C1674.3 374.3 1675.4 371.7 1675.4 368.6C1675.4 365.6 1674.4 362.7 1672.4 360L1617.7 286.1C1601.1 263.7 1574.8 250.5 1546.9 250.7Z" fill="white"/>
<path d="M1689.2 272.2C1687.3 270.3 1686.4 268 1686.4 265.3V224.6C1686.4 221.9 1687.3 219.6 1689.2 217.7C1691.1 215.8 1693.4 214.9 1696.1 214.9H1736.8C1739.5 214.9 1741.8 215.8 1743.7 217.7C1745.6 219.6 1746.5 221.9 1746.5 224.6V265.3C1746.5 268 1745.6 270.3 1743.9 272.2C1742.1 274.1 1739.8 275 1736.8 275H1696C1693.3 275.1 1691 274.1 1689.2 272.2Z" fill="white"/>
<path d="M3.00001 272.2C1.10001 270.3 0.200012 268 0.200012 265.3V224.6C0.200012 221.9 1.10001 219.6 3.00001 217.7C4.90001 215.8 7.20001 214.9 9.90001 214.9H50.6C53.3 214.9 55.6 215.8 57.5 217.7C59.4 219.6 60.3 221.9 60.3 224.6V265.3C60.3 268 59.4 270.3 57.7 272.2C55.9 274.1 53.6 275 50.6 275H9.90001C7.20001 275.1 4.90001 274.1 3.00001 272.2Z" fill="white"/>
</svg>
