<?xml version="1.0" encoding="utf-8"?>
<!-- Generator: Adobe Illustrator 24.2.0, SVG Export Plug-In . SVG Version: 6.00 Build 0)  -->
<svg version="1.1" id="Capa_1" xmlns="http://www.w3.org/2000/svg" xmlns:xlink="http://www.w3.org/1999/xlink" x="0px" y="0px"
	 viewBox="0 0 1858.6 490.1" style="enable-background:new 0 0 1858.6 490.1;" xml:space="preserve">
<style type="text/css">
	.st0{fill:#3A1B69;}
	.st1{fill:#06CBDA;}
</style>
<g>
	<g>
		<path class="st0" d="M395.7,153H352c-4.5,0-8.2,1.3-10.9,3.8c-2.6,2.4-4.4,5.1-5.1,7.8l-67.2,177.6l-67.2-177.6
			c-2.8-7.6-8.5-11.6-16.6-11.6h-43.7c-3.5,0-6.6,1.4-9.4,4.2c-2.8,2.8-4.2,6.1-4.2,9.9c0,2.4,0.2,4.2,0.7,5.7l99,244.4
			c1.9,4.6,4.5,8.2,7.6,10.7c3.2,2.6,7.9,4,13.7,4h40c9.8,0,17-4.9,21.3-14.7l98.5-244.5c0.4-1.3,0.7-3.1,0.7-5.5
			c0-3.8-1.3-7.1-3.8-9.9C402.9,154.4,399.6,153,395.7,153z"/>
		<path class="st0" d="M662.9,180.3c-23.2-21.6-55.7-32.5-96.5-32.5c-41.2,0-73.8,10.9-97,32.5c-23.2,21.6-35.9,51.5-37.7,88.9
			l-0.5,23.3l0.5,23.2c1.8,37.7,14.3,67.7,37.1,89.1c22.8,21.4,55.7,32.3,97.6,32.3c41.5,0,74.2-10.9,97-32.3
			c22.9-21.4,35.3-51.4,37.1-89.1c0.4-4.3,0.5-12.2,0.5-23.4c0-11.2-0.2-19.1-0.5-23.3C698.7,231.8,686.1,201.9,662.9,180.3z
			 M509.3,272c0.7-21.8,6-38.5,15.7-49.8c9.6-11.1,23.5-16.8,41.3-16.8c17.4,0,31.1,5.6,40.8,16.8c9.7,11.3,15,28,15.7,50
			c0.3,3.5,0.5,10.3,0.5,20.3c0,10-0.2,16.8-0.5,20.5c-0.7,21.8-5.9,38.4-15.5,49.5c-9.5,11-23.3,16.5-41,16.5
			c-17.8,0-31.7-5.6-41.3-16.5c-9.7-11.1-15-27.7-15.7-49.5l-0.5-20.4L509.3,272z"/>
		<path class="st0" d="M923.9,153h-22.1c-31,0-55.6,10.2-73.3,30.2v-14.6c0-4.5-1.5-8.3-4.4-11.3c-2.9-2.9-6.7-4.4-11.2-4.4h-43.2
			c-4.2,0-7.8,1.5-10.7,4.4c-2.9,2.9-4.4,6.7-4.4,11.3v248.1c0,4.2,1.5,7.8,4.4,10.7c2.9,2.9,6.5,4.4,10.7,4.4h46.9
			c4.2,0,7.8-1.5,10.7-4.4c2.9-2.9,4.4-6.5,4.4-10.7V272.4c0-15.7,4.5-28.3,13.5-37.2c9-8.9,21.5-20.8,37.2-20.8h41.6
			c4.6,0,8.3-1.5,11.1-4.5c2.7-2.9,4.1-6.5,4.1-10.7v-31.1c0-4.5-1.4-8.2-4.2-11C932.2,154.4,928.5,153,923.9,153z"/>
		<path class="st0" d="M1145.1,368.4h-36.9c-11.2,0-18.9-3.4-23.7-10.5c-5-7.3-7.5-18.3-7.5-32.8V214.4h63.3c4.2,0,7.8-1.5,10.7-4.4
			c2.9-2.9,4.4-6.5,4.4-10.7v-31.1c0-4.2-1.5-7.8-4.4-10.7c-2.9-2.9-6.5-4.4-10.7-4.4h-63.3V68.1c0-4.5-1.4-8.2-4.2-11
			c-2.8-2.8-6.5-4.2-11-4.2h-43.7c-4.2,0-7.7,1.4-10.7,4.1c-3,2.8-4.5,6.5-4.5,11.1V153H964c-4.2,0-7.8,1.5-10.7,4.4
			c-2.9,2.9-4.4,6.5-4.4,10.7v31.1c0,4.2,1.5,7.8,4.4,10.7c2.9,2.9,6.5,4.4,10.7,4.4h39.1v116.5c0,32.8,8.4,58.1,24.9,75.2
			c16.6,17.1,41.4,25.8,74,25.8h43.2c4.6,0,8.3-1.5,11-4.5c2.7-2.9,4.1-6.5,4.1-10.7v-33.2c0-4.5-1.4-8.2-4.2-11
			C1153.4,369.8,1149.7,368.4,1145.1,368.4z"/>
		<path class="st0" d="M1421.1,186.5c-23-25.7-56.2-38.8-98.5-38.8c-41.3,0-74.1,13-97.4,38.7c-23.3,25.6-35.1,61.1-35.1,105.5
			l0.5,13.2c1.4,41.9,14,74.7,37.4,97.6l0,0c23.4,22.8,55.4,34.4,95.2,34.4c24.8,0,47-4.3,65.8-12.9c18.9-8.5,33.6-18.8,43.8-30.4
			c10.5-12,15.6-22.3,15.6-31.4c0-4-1.5-7.1-4.4-9.4c-2.7-2.1-6-3.2-9.7-3.2h-46.3c-4.6,0-7.9,0.5-10.1,1.6
			c-2.1,1.1-4.7,3.5-8.2,7.8c-12.1,15.4-27.9,23.3-47,23.3c-16.9,0-29.8-6-39.4-18.3c-9.6-12.3-14.9-28.2-15.5-47.2v-1.7h172.3
			c4.5,0,8.3-1.5,11.3-4.4c2.9-2.9,4.4-6.5,4.4-10.7v-11.1C1455.7,246.7,1444.1,212.1,1421.1,186.5z M1282.4,219
			c9.6-11.8,23.2-17.8,40.2-17.8c17,0,30.7,6,40.5,17.8c9.7,11.7,14.7,27.4,15,46.7h-110.3C1268,246.4,1272.9,230.6,1282.4,219z"/>
	</g>
	<path class="st0" d="M1602.8,282.6c-24.3-0.2-47.2-11.7-61.7-31.2l-58.2-78.1c-2-2.7-3-5.8-3-9.1c0-2.7,1-5.2,3-7.4
		c2-2.2,4.6-3.3,7.6-3.3h43.2c4.7,0,8.2,1.4,10.4,4.1c2.2,2.7,3.5,4.2,3.8,4.6l56.4,75.7l56.9-75.7c2-2.7,4-4.8,5.8-6.4
		c1.9-1.5,4.7-2.3,8.4-2.3h44.7c3,0,5.7,1.1,7.9,3.3c2.2,2.2,3.3,4.8,3.3,7.9c0,3-1,5.9-3,8.6l-54.7,73.9
		C1657,269.6,1630.7,282.8,1602.8,282.6L1602.8,282.6z"/>
	<path class="st1" d="M1602.9,302.7c-24.3,0.2-47.2,11.7-61.7,31.2l-58.2,78.1c-2,2.7-3,5.8-3,9.1c0,2.7,1,5.2,3,7.4
		s4.6,3.3,7.6,3.3h43.2c4.7,0,8.2-1.4,10.4-4.1c2.2-2.7,3.5-4.2,3.8-4.6l56.4-75.7l56.9,75.7c2,2.7,4,4.8,5.8,6.4
		c1.9,1.5,4.7,2.3,8.4,2.3h44.7c3,0,5.7-1.1,7.9-3.3s3.3-4.8,3.3-7.9c0-3-1-5.9-3-8.6l-54.7-73.9
		C1657.1,315.7,1630.8,302.5,1602.9,302.7L1602.9,302.7z"/>
	<g>
		<path class="st1" d="M1745.2,324.2c-1.9-1.9-2.8-4.2-2.8-6.9v-40.7c0-2.7,0.9-5,2.8-6.9c1.9-1.9,4.2-2.8,6.9-2.8h40.7
			c2.7,0,5,0.9,6.9,2.8c1.9,1.9,2.8,4.2,2.8,6.9v40.7c0,2.7-0.9,5-2.6,6.9c-1.8,1.9-4.1,2.8-7.1,2.8H1752
			C1749.3,327.1,1747,326.1,1745.2,324.2z"/>
	</g>
	<g>
		<path class="st0" d="M59,324.2c-1.9-1.9-2.8-4.2-2.8-6.9v-40.7c0-2.7,0.9-5,2.8-6.9c1.9-1.9,4.2-2.8,6.9-2.8h40.7
			c2.7,0,5,0.9,6.9,2.8c1.9,1.9,2.8,4.2,2.8,6.9v40.7c0,2.7-0.9,5-2.6,6.9c-1.8,1.9-4.1,2.8-7.1,2.8H65.9
			C63.2,327.1,60.9,326.1,59,324.2z"/>
	</g>
</g>
</svg>
